<?xml version="1.0" encoding="UTF-8" standalone="no"?>
<svg width="161px" height="222px" viewBox="0 0 161 222" version="1.1" xmlns="http://www.w3.org/2000/svg" xmlns:xlink="http://www.w3.org/1999/xlink">
    <!-- Generator: sketchtool 39.1 (31720) - http://www.bohemiancoding.com/sketch -->
    <title>47FD4018-907B-4BA6-8D67-4E8C29BC844B</title>
    <desc>Created with sketchtool.</desc>
    <defs></defs>
    <g id="Page-1" stroke="none" stroke-width="1" fill="none" fill-rule="evenodd">
        <g id="07_Assets" transform="translate(-61.000000, -1401.000000)" fill="#7DCBC4">
            <path d="M196.297149,1529.39162 C180.996675,1534.70719 163.846231,1538.82646 159.305174,1538.82646 C151.555039,1538.82646 145.252812,1534.4334 145.252812,1529.03396 C145.252812,1523.63205 151.557505,1519.23405 159.305174,1519.23405 C160.93808,1519.23405 163.811698,1519.14279 167.44257,1519.02686 C169.815463,1518.95286 172.509018,1518.86406 175.394969,1518.7876 C176.413685,1523.30645 177.910927,1525.27235 180.256687,1525.27235 L180.259154,1525.27235 C182.368118,1525.24769 183.63843,1523.56791 184.590547,1520.6795 C185.587064,1523.85898 186.965907,1525.27235 188.956473,1525.27235 C191.526697,1525.24275 192.848808,1522.74653 193.87739,1518.59766 C196.598078,1518.63466 199.116502,1518.70373 201.393197,1518.80979 C210.29278,1519.22665 213.881719,1520.14424 215.280295,1520.70416 C213.871852,1521.93994 209.500993,1524.80863 196.297149,1529.39162 L196.297149,1529.39162 Z M166.418921,1496.63237 C166.418921,1493.05083 169.336938,1490.15255 172.940677,1490.15255 C176.546883,1490.15255 179.4649,1493.05083 179.4649,1496.63237 L179.4649,1501.37076 C179.4649,1504.95476 176.546883,1507.85058 172.940677,1507.85058 C169.339405,1507.85058 166.418921,1504.9523 166.418921,1501.37076 L166.418921,1496.63237 Z M122.947122,1505.27049 C122.947122,1508.84956 120.026638,1511.75031 116.422899,1511.75031 C112.82656,1511.75031 109.908542,1508.8471 109.908542,1505.27049 L109.908542,1500.52717 C109.908542,1496.9481 112.82656,1494.04735 116.422899,1494.04735 C120.026638,1494.04735 122.947122,1496.9481 122.947122,1500.52717 L122.947122,1505.27049 Z M201.726191,1513.37089 C202.061652,1506.4816 200.986203,1499.37772 198.25565,1492.29851 C195.734759,1485.73729 191.837491,1479.292 186.958507,1473.3351 C171.02411,1482.38268 145.178813,1486.71654 133.205815,1488.31491 C126.98252,1489.1437 114.629662,1490.53981 101.758813,1490.53981 C92.9973612,1490.53981 85.6690184,1489.88862 79.5838545,1488.61337 C75.2302614,1504.95476 75.6298546,1522.81066 81.0564296,1536.88522 C83.7795836,1543.95457 87.7385167,1549.94354 92.6002346,1554.84719 C94.689466,1554.22066 96.8872288,1553.86794 99.1589904,1553.86794 C101.097758,1553.86794 103.041458,1554.11706 104.923493,1554.60546 C110.826127,1556.13723 115.77911,1559.85197 118.854991,1565.07875 C119.69611,1566.49212 120.349766,1567.97703 120.852957,1569.49894 C124.412297,1569.89113 128.36383,1570.12546 132.72729,1570.12546 C137.524876,1570.12546 141.78227,1569.901 145.583339,1569.54334 C150.166329,1568.71702 154.776451,1567.45164 159.354507,1565.71267 C175.661365,1559.50911 188.35215,1548.60169 195.46343,1535.44225 C196.351415,1535.14379 197.236933,1534.84779 198.107652,1534.54193 C221.33586,1526.47607 221.33586,1522.3716 221.33586,1520.3983 C221.333393,1516.01018 215.835286,1514.04181 201.726191,1513.37089 L201.726191,1513.37089 Z M69.9689503,1478.33001 C73.0127655,1480.20218 77.0012981,1481.50209 81.5004221,1482.39501 C98.7939299,1485.82609 123.689576,1483.04867 132.33263,1481.89182 C141.229746,1480.70044 167.134242,1476.66751 182.582714,1468.38951 C186.068055,1466.52228 189.030472,1464.43798 191.134503,1462.12675 C195.897556,1456.88271 195.201968,1449.02897 189.580529,1444.58412 C184.01829,1440.18859 175.713164,1440.77565 170.922978,1445.86923 C170.449386,1446.25402 169.6058,1446.75228 168.42182,1447.33194 L165.368139,1403.88234 C164.49002,1399.73594 143.484242,1400.10593 118.460331,1404.71606 C93.4314872,1409.32618 73.8489514,1416.42759 74.7270699,1420.57892 C74.7764024,1420.78858 74.877534,1420.98345 75.0230649,1421.16351 C75.2302614,1421.5779 75.4991235,1422.25129 75.7975851,1423.07515 C76.515373,1423.20834 77.2553605,1423.34401 78.0076811,1423.48707 C79.731852,1423.84473 83.2714589,1424.58965 87.7311168,1425.01145 C92.1907748,1425.46037 97.5532176,1425.53437 102.73313,1425.17178 C113.092955,1424.52305 122.554929,1422.07863 122.944655,1423.18614 C123.361515,1424.22706 114.447132,1428.75085 103.561916,1431.01768 C98.1550741,1432.17699 92.3165727,1432.74432 87.34879,1432.69498 C83.8461825,1432.67772 80.8122337,1432.37432 78.6144709,1432.06106 C81.0391632,1440.35879 83.9374476,1451.2292 85.6221525,1457.80523 C85.1460939,1457.68436 84.7317009,1457.55363 84.4431057,1457.4303 C78.3184759,1453.79449 70.161347,1455.40767 66.1530814,1461.09324 C62.1053498,1466.83061 63.8097876,1474.54374 69.9689503,1478.33001 L69.9689503,1478.33001 Z M196.556145,1579.38517 C195.717492,1580.77881 194.693843,1582.07626 193.593728,1583.3293 C189.96779,1578.71672 185.133205,1572.64635 181.033674,1567.7501 C182.858976,1565.79407 185.402067,1564.65942 188.17702,1564.65942 C189.933257,1564.65942 191.667294,1565.13795 193.186735,1566.04813 C195.431364,1567.37764 197.010004,1569.49894 197.64886,1572.01736 C198.282782,1574.53579 197.893056,1577.15534 196.556145,1579.38517 L196.556145,1579.38517 Z M135.951169,1602.47031 C134.927519,1595.84989 135.193915,1588.85208 135.827838,1583.02344 C145.652405,1582.78171 154.095662,1581.44234 160.903547,1579.55784 C162.664718,1585.20887 164.810681,1592.29795 166.391788,1598.21292 C156.461156,1600.92867 145.689404,1602.23599 135.951169,1602.47031 L135.951169,1602.47031 Z M103.746913,1597.68506 L85.5086877,1591.80216 L88.6289683,1578.66245 L107.160722,1584.63415 L103.746913,1597.68506 Z M79.3026592,1589.72526 C78.6440704,1589.2862 77.995348,1588.83974 77.3737585,1588.37602 C78.3283424,1586.52112 79.5098557,1584.81668 80.8393666,1583.24051 L79.3026592,1589.72526 Z M196.538879,1560.48342 C193.916856,1558.92205 191.023505,1558.1796 188.174553,1558.1796 C182.632047,1558.1796 177.237538,1560.97922 174.183856,1566.04813 C172.373354,1568.75402 158.651519,1576.60035 132.724823,1576.60035 C126.178401,1576.60035 120.411431,1576.09716 115.409116,1575.30537 C115.184653,1572.41202 114.183203,1569.6642 112.555231,1567.32584 C110.411734,1564.25489 107.202655,1561.89433 103.275788,1560.87808 C101.899411,1560.52042 100.520567,1560.35516 99.1540572,1560.35516 C99.1269243,1560.35516 99.1022581,1560.35763 99.0677253,1560.35763 C95.5355183,1560.37736 92.1562421,1561.54901 89.4034886,1563.5963 C86.2610083,1560.12083 81.8334165,1558.20426 77.2898932,1558.20426 C74.4409414,1558.20426 71.5500569,1558.95165 68.9255679,1560.51549 C63.6075244,1563.68017 60.7659724,1569.38301 61.0151015,1575.13764 C61.1334995,1577.735 61.8833535,1580.35209 63.3238625,1582.73978 C63.4644602,1582.96918 63.6395905,1583.17391 63.7851214,1583.40084 L63.7801881,1583.4181 C63.8961195,1583.5957 64.0317839,1583.7585 64.1551151,1583.93116 C67.181664,1588.48208 71.3181941,1592.32015 76.2613106,1595.50457 C76.239111,1595.66736 76.2119781,1595.83016 76.2119781,1595.99789 L76.2119781,1618.46144 L76.2119781,1619.75889 C76.2119781,1621.55213 77.6722201,1623.00003 79.4703897,1623.00003 C80.1980441,1623.00003 80.8689661,1622.75337 81.409157,1622.35131 C82.2058769,1621.75686 82.731268,1620.822 82.731268,1619.75889 C82.731268,1621.55213 84.1939766,1623.00003 85.9946128,1623.00003 C87.7927825,1623.00003 89.2554911,1621.55213 89.2554911,1619.75889 C89.2554911,1621.55213 90.7107998,1623.00003 92.5139027,1623.00003 C94.3120723,1623.00003 95.7698477,1621.55213 95.7698477,1619.75889 C95.7698477,1621.55213 97.2300897,1623.00003 99.0356592,1623.00003 C100.833829,1623.00003 102.296537,1621.55213 102.296537,1619.75889 L102.296537,1615.33376 C104.987625,1613.28647 107.039857,1610.37338 108.036374,1606.90284 C116.316834,1608.35075 124.799557,1609.00934 132.722357,1609.00934 C158.057062,1609.00934 189.005806,1602.37165 201.282198,1583.95829 C201.560927,1583.5365 201.881588,1583.14924 202.140584,1582.71758 C203.578626,1580.32249 204.330947,1577.71527 204.441945,1575.11051 C204.698474,1569.35341 201.854455,1563.64564 196.538879,1560.48342 L196.538879,1560.48342 Z" id="Empty_State"></path>
        </g>
    </g>
</svg>