<?xml version="1.0" encoding="UTF-8" standalone="no"?>
<svg width="71px" height="37px" viewBox="0 0 71 37" version="1.1" xmlns="http://www.w3.org/2000/svg" xmlns:xlink="http://www.w3.org/1999/xlink">
    <!-- Generator: Sketch 39.1 (31720) - http://www.bohemiancoding.com/sketch -->
    <title>sunset</title>
    <desc>Created with Sketch.</desc>
    <defs></defs>
    <g id="Page-1" stroke="none" stroke-width="1" fill="none" fill-rule="evenodd">
        <g id="sunset" fill="#FFFFFF">
            <g id="Page-1">
                <g id="sunset">
                    <path d="M15.026,36.236 C15.026,24.929 24.192,15.762 35.501,15.762 C46.809,15.762 55.975,24.929 55.975,36.236" id="Shape"></path>
                    <path d="M70.625,34.236 C70.625,33.134 69.725,32.236 68.625,32.236 L61.125,32.236 C60.025,32.236 59.125,33.134 59.125,34.236 L59.125,34.236 C59.125,35.336 60.025,36.236 61.125,36.236 L68.625,36.236 C69.725,36.236 70.625,35.336 70.625,34.236 L70.625,34.236 L70.625,34.236 L70.625,34.236 Z" id="Shape"></path>
                    <path d="M65.252,17.458 C64.719,16.496 63.495,16.145 62.533,16.678 L55.972,20.315 C55.008,20.848 54.659,22.071 55.193,23.034 L55.193,23.035 C55.726,23.997 56.95,24.348 57.912,23.813 L64.473,20.175 C65.434,19.645 65.784,18.42 65.252,17.458 L65.252,17.458 L65.252,17.458 Z" id="Shape"></path>
                    <path d="M52.418,5.388 C51.484,4.805 50.245,5.091 49.662,6.024 L45.685,12.385 C45.103,13.318 45.39,14.558 46.323,15.141 L46.323,15.141 C47.256,15.724 48.496,15.437 49.079,14.504 L53.055,8.144 C53.637,7.211 53.352,5.971 52.418,5.388 L52.418,5.388 L52.418,5.388 Z" id="Shape"></path>
                    <path d="M0.375,34.236 C0.375,33.134 1.275,32.236 2.375,32.236 L9.875,32.236 C10.975,32.236 11.875,33.134 11.875,34.236 L11.875,34.236 C11.875,35.336 10.975,36.236 9.875,36.236 L2.375,36.236 C1.275,36.236 0.375,35.336 0.375,34.236 L0.375,34.236 L0.375,34.236 L0.375,34.236 Z" id="Shape"></path>
                    <path d="M35.5,0.765 C36.6,0.765 37.5,1.665 37.5,2.765 L37.5,10.265 C37.5,11.365 36.6,12.265 35.5,12.265 L35.5,12.265 C34.4,12.265 33.5,11.365 33.5,10.265 L33.5,2.765 C33.5,1.665 34.4,0.765 35.5,0.765 L35.5,0.765 L35.5,0.765 L35.5,0.765 Z" id="Shape"></path>
                    <path d="M5.749,17.458 C6.282,16.496 7.505,16.145 8.467,16.678 L15.028,20.315 C15.99,20.848 16.341,22.071 15.807,23.034 L15.807,23.035 C15.274,23.997 14.05,24.348 13.088,23.813 L6.528,20.175 C5.566,19.645 5.215,18.42 5.749,17.458 L5.749,17.458 L5.749,17.458 Z" id="Shape"></path>
                    <path d="M18.583,5.388 C19.516,4.805 20.756,5.091 21.339,6.024 L25.314,12.385 C25.897,13.318 25.611,14.558 24.678,15.141 L24.678,15.141 C23.745,15.724 22.505,15.437 21.922,14.504 L17.947,8.144 C17.364,7.211 17.65,5.971 18.583,5.388 L18.583,5.388 L18.583,5.388 Z" id="Shape"></path>
                </g>
            </g>
        </g>
    </g>
</svg>