<?xml version="1.0" encoding="UTF-8" standalone="no"?>
<svg width="24px" height="24px" viewBox="0 0 24 24" version="1.1" xmlns="http://www.w3.org/2000/svg" xmlns:xlink="http://www.w3.org/1999/xlink">
    <!-- Generator: Sketch 39.1 (31720) - http://www.bohemiancoding.com/sketch -->
    <title>umbrella</title>
    <desc>Created with Sketch.</desc>
    <defs></defs>
    <g id="Page-1" stroke="none" stroke-width="1" fill="none" fill-rule="evenodd">
        <g id="umbrella" fill="#FFFFFF">
            <path d="M18.793,2.206 C19.06,2.206 19.311,2.102 19.5,1.913 C19.752,1.66 19.907,1.054 19.992,0.589 C20.022,0.428 19.97,0.262 19.854,0.146 C19.738,0.03 19.572,-0.019 19.411,0.007 C18.946,0.092 18.339,0.246 18.087,0.499 C17.697,0.889 17.697,1.523 18.087,1.913 C18.275,2.102 18.526,2.206 18.793,2.206 L18.793,2.206 Z M18.586,3.999 C18.196,4.389 18.196,5.023 18.586,5.413 C18.775,5.601 19.026,5.706 19.293,5.706 C19.56,5.706 19.811,5.602 20,5.413 C20.252,5.16 20.407,4.554 20.492,4.089 C20.522,3.928 20.47,3.762 20.354,3.646 C20.238,3.53 20.072,3.481 19.911,3.507 C19.445,3.592 18.838,3.746 18.586,3.999 L18.586,3.999 Z M23.854,3.145 C23.738,3.029 23.572,2.981 23.411,3.006 C22.946,3.091 22.339,3.245 22.087,3.498 C21.697,3.888 21.697,4.522 22.087,4.912 C22.276,5.1 22.527,5.205 22.794,5.205 C23.061,5.205 23.312,5.101 23.501,4.912 C23.753,4.659 23.908,4.053 23.993,3.588 C24.021,3.428 23.97,3.262 23.854,3.145 L23.854,3.145 Z M10.5,3.999 C4.71,3.999 0,8.709 0,14.499 C0,14.775 0.224,14.999 0.5,14.999 C0.776,14.999 1,14.775 1,14.499 C1,13.672 1.897,12.999 3,12.999 C4.103,12.999 5,13.672 5,14.499 C5,14.775 5.224,14.999 5.5,14.999 C5.776,14.999 6,14.775 6,14.499 C6,13.672 6.897,12.999 8,12.999 C9.103,12.999 10,13.672 10,14.499 L10,21.999 C10,22.551 9.551,22.999 9,22.999 C8.449,22.999 8,22.551 8,21.999 L8,21.499 C8,21.223 7.776,20.999 7.5,20.999 C7.224,20.999 7,21.223 7,21.499 L7,21.999 C7,23.102 7.897,23.999 9,23.999 C10.103,23.999 11,23.102 11,21.999 L11,14.499 C11,13.672 11.897,12.999 13,12.999 C14.103,12.999 15,13.672 15,14.499 C15,14.775 15.224,14.999 15.5,14.999 C15.776,14.999 16,14.775 16,14.499 C16,13.672 16.897,12.999 18,12.999 C19.103,12.999 20,13.672 20,14.499 C20,14.775 20.224,14.999 20.5,14.999 C20.506,14.998 20.513,14.998 20.52,14.999 C20.796,14.999 21.02,14.775 21.02,14.499 C21.02,14.449 21.013,14.4 20.999,14.355 C20.922,8.632 16.242,3.999 10.5,3.999 L10.5,3.999 Z" id="Shape"></path>
        </g>
    </g>
</svg>