<?xml version="1.0" encoding="UTF-8" standalone="no"?>
<svg width="54px" height="50px" viewBox="0 0 54 50" version="1.1" xmlns="http://www.w3.org/2000/svg" xmlns:xlink="http://www.w3.org/1999/xlink">
    <!-- Generator: Sketch 39.1 (31720) - http://www.bohemiancoding.com/sketch -->
    <title>wind</title>
    <desc>Created with Sketch.</desc>
    <defs></defs>
    <g id="Page-1" stroke="none" stroke-width="1" fill="none" fill-rule="evenodd">
        <g id="wind" transform="translate(-1.000000, 0.000000)" fill="#FFFFFF">
            <g id="Page-1">
                <g id="wind" transform="translate(1.000000, 0.000000)">
                    <g id="Group">
                        <path d="M53.278,18.793 C53.278,14.295 49.62,10.635 45.123,10.635 C40.626,10.635 36.967,14.295 36.967,18.793 C36.967,20.355 37.416,21.811 38.181,23.052 L2.414,23.052 C1.31,23.052 0.414,23.948 0.414,25.052 C0.414,26.156 1.31,27.052 2.414,27.052 L45.123,27.052 C45.381,27.052 45.625,26.999 45.851,26.91 C50.008,26.541 53.278,23.043 53.278,18.793 L53.278,18.793 L53.278,18.793 Z M45.123,22.947 C42.831,22.947 40.967,21.083 40.967,18.793 C40.967,16.501 42.831,14.635 45.123,14.635 C47.414,14.635 49.278,16.5 49.278,18.793 C49.278,21.083 47.414,22.947 45.123,22.947 L45.123,22.947 L45.123,22.947 Z" id="Shape"></path>
                        <path d="M31.217,33.312 L2.416,33.312 C1.312,33.312 0.416,34.208 0.416,35.312 C0.416,36.416 1.312,37.312 2.416,37.312 L24.211,37.312 C23.485,38.531 23.06,39.95 23.06,41.468 C23.06,45.964 26.719,49.622 31.217,49.622 C35.713,49.622 39.371,45.964 39.371,41.468 C39.371,36.972 35.713,33.312 31.217,33.312 L31.217,33.312 L31.217,33.312 Z M31.217,45.623 C28.924,45.623 27.06,43.76 27.06,41.469 C27.06,39.177 28.924,37.313 31.217,37.313 C33.507,37.313 35.371,39.177 35.371,41.469 C35.371,43.76 33.507,45.623 31.217,45.623 L31.217,45.623 L31.217,45.623 Z" id="Shape"></path>
                        <path d="M2.416,16.791 L20.5,16.791 C20.756,16.791 20.999,16.738 21.224,16.651 C25.383,16.283 28.656,12.786 28.656,8.534 C28.656,4.035 24.998,0.376 20.501,0.376 C16.003,0.376 12.345,4.036 12.345,8.534 C12.345,10.096 12.794,11.55 13.558,12.791 L2.416,12.791 C1.312,12.791 0.416,13.687 0.416,14.791 C0.416,15.895 1.311,16.791 2.416,16.791 L2.416,16.791 L2.416,16.791 Z M20.5,4.375 C22.791,4.375 24.655,6.24 24.655,8.533 C24.655,10.824 22.791,12.687 20.5,12.687 C18.208,12.687 16.344,10.824 16.344,8.533 C16.344,6.241 18.208,4.375 20.5,4.375 L20.5,4.375 L20.5,4.375 Z" id="Shape"></path>
                    </g>
                </g>
            </g>
        </g>
    </g>
</svg>